<svg width="37" height="35" viewBox="0 0 37 35" fill="none" xmlns="http://www.w3.org/2000/svg">
<path d="M34.1706 34.9904C35.2728 34.9904 36.1667 34.126 36.1667 33.0597V1.94016C36.1667 0.873791 35.2728 0.00952148 34.1706 0.00952148H1.99609C0.89343 0.00952148 0 0.873791 0 1.94016V33.0597C0 34.126 0.89343 34.9904 1.99609 34.9904H34.1706Z" fill="#395185"/>
<path d="M24.9544 34.9905V21.4441H29.6556L30.3594 16.1649H24.9544V12.7941C24.9544 11.2657 25.3933 10.224 27.6595 10.224L30.5499 10.2228V5.50108C30.0498 5.43672 28.3341 5.29297 26.3382 5.29297C22.1708 5.29297 19.3179 7.75323 19.3179 12.2715V16.1649H14.6046V21.4441H19.3179V34.9905H24.9544Z" fill="white"/>
</svg>
