<svg width="28" height="27" viewBox="0 0 28 27" fill="none" xmlns="http://www.w3.org/2000/svg">
<path d="M20.2755 20.4363H20.2757C20.9408 20.4365 21.5772 20.7032 22.0454 21.1756C22.0454 21.1757 22.0455 21.1757 22.0455 21.1757L27.0382 26.2127L27.0388 26.2133C27.0567 26.2315 27.0788 26.243 27.1017 26.2477C27.1247 26.2523 27.1485 26.25 27.1706 26.2408C27.1927 26.2316 27.2127 26.2155 27.2272 26.1936C27.2418 26.1716 27.25 26.1451 27.25 26.1174L20.2755 20.4363ZM20.2755 20.4363H3.5C2.7728 20.4363 2.07404 20.1449 1.55779 19.6241C1.04133 19.1031 0.75 18.395 0.75 17.6553V3.53105C0.75 2.79134 1.04133 2.08325 1.55779 1.5622C2.07404 1.04138 2.7728 0.75 3.5 0.75H24.5C25.2272 0.75 25.926 1.04138 26.4422 1.5622M20.2755 20.4363L26.4422 1.5622M26.4422 1.5622C26.9587 2.08325 27.25 2.79135 27.25 3.53105V26.1173L26.4422 1.5622Z" stroke-width="1.5"/>
</svg>
