<svg width="35" height="35" viewBox="0 0 35 35" fill="none" xmlns="http://www.w3.org/2000/svg">
<path d="M17.5 0C7.83494 0 0 7.83494 0 17.5C0 27.1651 7.83494 35 17.5 35C27.1651 35 35 27.1651 35 17.5C35 7.83494 27.1651 0 17.5 0Z" fill="#40B3E0"/>
<path d="M26.0152 10.0667L22.8894 25.8262C22.8894 25.8262 22.4523 26.9191 21.2501 26.3945L14.0371 20.8645L11.4143 19.5969L6.99909 18.1105C6.99909 18.1105 6.32152 17.8701 6.25589 17.3455C6.19027 16.8209 7.02097 16.5368 7.02097 16.5368L24.5724 9.65166C24.5724 9.65166 26.015 9.01784 26.015 10.067" fill="white"/>
<path d="M13.4829 25.6488C13.4829 25.6488 13.2723 25.6291 13.0098 24.7984C12.7477 23.9679 11.4143 19.5964 11.4143 19.5964L22.0152 12.8644C22.0152 12.8644 22.6273 12.4928 22.6054 12.8644C22.6054 12.8644 22.7147 12.93 22.3867 13.236C22.059 13.5421 14.0591 20.7331 14.0591 20.7331" fill="#D2E5F1"/>
<path d="M16.8029 22.9844L13.9499 25.5856C13.9499 25.5856 13.7268 25.7549 13.4829 25.6488L14.0292 20.8171" fill="#B5CFE4"/>
</svg>
