<svg width="35" height="28" viewBox="0 0 35 28" fill="none" xmlns="http://www.w3.org/2000/svg">
<path d="M35 3.40955C33.7121 3.96915 32.3282 4.34735 30.8757 4.5175C32.3585 3.64668 33.4969 2.26771 34.033 0.624691C32.6235 1.44431 31.0814 2.02178 29.4733 2.33216C28.1634 0.96471 26.2973 0.110107 24.2319 0.110107C20.2662 0.110107 17.051 3.26058 17.051 7.14628C17.051 7.69784 17.1146 8.2348 17.237 8.74992C11.2692 8.45638 5.97816 5.65518 2.43646 1.39811C1.8185 2.43732 1.46439 3.64615 1.46439 4.93549C1.46439 7.37671 2.73219 9.5303 4.65883 10.7922C3.51852 10.7572 2.40331 10.4554 1.40629 9.91198C1.40588 9.94146 1.40588 9.97093 1.40588 10.0005C1.40588 13.4097 3.88104 16.2536 7.16584 16.9001C6.10844 17.1819 4.9993 17.2231 3.92314 17.0206C4.83684 19.8161 7.48877 21.8503 10.6308 21.9072C8.17332 23.7944 5.07705 24.9193 1.71295 24.9193C1.13326 24.9193 0.561777 24.886 0 24.821C3.17775 26.8174 6.95215 27.9823 11.0072 27.9823C24.2152 27.9823 31.4377 17.2604 31.4377 7.9623C31.4377 7.65711 31.4308 7.35367 31.4169 7.05196C32.8227 6.05613 34.036 4.8227 35 3.40955Z" fill="#55ACEE"/>
</svg>
