<svg width="37" height="35" viewBox="0 0 37 35" fill="none" xmlns="http://www.w3.org/2000/svg">
<path d="M33.5312 0H3.46875C1.56094 0 0 1.47656 0 3.28125V31.7188C0 33.5234 1.56094 35 3.46875 35H33.5312C35.4391 35 37 33.5234 37 31.7188V3.28125C37 1.47656 35.4391 0 33.5312 0ZM29.9677 24.5L26.5845 24.5481C26.5845 24.5481 25.8537 24.6859 24.901 24.0625C23.6361 23.2422 22.4428 21.1028 21.5109 21.3828C20.572 21.6628 20.5998 23.5834 20.5998 23.5834C20.5998 23.5834 20.6067 23.9947 20.3893 24.2113C20.1581 24.4497 19.6956 24.4978 19.6956 24.4978H18.1855C18.1855 24.4978 14.8462 24.6903 11.9047 21.7897C8.695 18.6309 5.8645 12.3637 5.8645 12.3637C5.8645 12.3637 5.698 11.9525 5.87838 11.7556C6.07956 11.5303 6.623 11.5172 6.623 11.5172L10.2444 11.4975C10.2444 11.4975 10.5843 11.5522 10.8294 11.7228C11.0329 11.8606 11.1393 12.1253 11.1393 12.1253C11.1393 12.1253 11.7244 13.5275 12.4991 14.7919C14.0091 17.2594 14.7168 17.7997 15.2301 17.5394C15.9747 17.1566 15.7504 14.0459 15.7504 14.0459C15.7504 14.0459 15.7643 12.9172 15.3758 12.4184C15.0729 12.0291 14.5017 11.9131 14.2566 11.8847C14.0531 11.8562 14.3861 11.4122 14.8208 11.2087C15.4706 10.9069 16.6199 10.8872 17.9797 10.9003C19.0342 10.9069 19.3464 10.9747 19.758 11.0644C21.0091 11.3509 20.5812 12.4513 20.5812 15.0916C20.5812 15.9403 20.4217 17.1281 21.0646 17.5175C21.3398 17.6881 22.0173 17.5438 23.717 14.8181C24.5194 13.5253 25.1253 12.0094 25.1253 12.0094C25.1253 12.0094 25.2548 11.7359 25.4583 11.62C25.6687 11.5041 25.9509 11.5391 25.9509 11.5391L29.7596 11.5194C29.7596 11.5194 30.9019 11.3903 31.0893 11.8825C31.2835 12.3944 30.6638 13.5909 29.1098 15.5531C26.5591 18.7731 26.27 18.4712 28.3952 20.3306C30.4186 22.1091 30.8372 22.9753 30.9112 23.0847C31.7344 24.3972 29.9723 24.5 29.9723 24.5H29.9677Z" fill="#2787F5"/>
</svg>
